HIERARCHY
ROOT Hips
{
	OFFSET 0.000000 0.000000 0.000000
	CHANNELS 6 Xposition Yposition Zposition Xrotation Yrotation Zrotation
	JOINT LeftUpLeg_virtual
	{
		OFFSET 0.000000 0.000000 0.000000
		CHANNELS 3 Xrotation Yrotation Zrotation
		JOINT LeftUpLeg
		{
			OFFSET 10.205400 -3.823500 0.155100
			CHANNELS 3 Xrotation Yrotation Zrotation
			JOINT LeftLeg
			{
				OFFSET 0.708757 -12.982077 0.567790
				CHANNELS 3 Xrotation Yrotation Zrotation
				JOINT LeftFoot
				{
					OFFSET -0.708756 -10.717838 -2.184338
					CHANNELS 3 Xrotation Yrotation Zrotation
					JOINT LeftToeBase
					{
						OFFSET 0.108149 -7.191104 7.560241
						CHANNELS 3 Xrotation Yrotation Zrotation
						JOINT LeftToe_End
						{
							OFFSET 0.070230 0.081724 4.490308
							CHANNELS 3 Xrotation Yrotation Zrotation
							End Site
							{
								OFFSET 0 0 0
							}
						}
					}
				}
			}
		}
	}
	JOINT RightUpLeg_virtual
	{
		OFFSET 0.000000 0.000000 0.000000
		CHANNELS 3 Xrotation Yrotation Zrotation
		JOINT RightUpLeg
		{
			OFFSET -10.205400 -3.823500 0.005500
			CHANNELS 3 Xrotation Yrotation Zrotation
			JOINT RightLeg
			{
				OFFSET -0.708756 -12.982134 0.610632
				CHANNELS 3 Xrotation Yrotation Zrotation
				JOINT RightFoot
				{
					OFFSET 0.708754 -10.717769 -1.945823
					CHANNELS 3 Xrotation Yrotation Zrotation
					JOINT RightToeBase
					{
						OFFSET -0.108140 -7.191069 7.372968
						CHANNELS 3 Xrotation Yrotation Zrotation
						JOINT RightToe_End
						{
							OFFSET -0.070227 0.081735 4.479403
							CHANNELS 3 Xrotation Yrotation Zrotation
							End Site
							{
								OFFSET 0 0 0
							}
						}
					}
				}
			}
		}
	}
	JOINT Spine_virtual
	{
		OFFSET 0.000000 0.000000 0.000000
		CHANNELS 3 Xrotation Yrotation Zrotation
		JOINT Spine
		{
			OFFSET 0.000000 6.876099 0.125700
			CHANNELS 3 Xrotation Yrotation Zrotation
			JOINT Spine1
			{
				OFFSET 0.000000 5.730043 0.104720
				CHANNELS 3 Xrotation Yrotation Zrotation
				JOINT Spine1_split
				{
					OFFSET 0.000000 5.730043 0.104720
					CHANNELS 3 Xrotation Yrotation Zrotation
					JOINT Spine2
					{
						OFFSET 0.000000 5.730043 0.104720
						CHANNELS 3 Xrotation Yrotation Zrotation
						JOINT Neck_virtual
						{
							OFFSET 0.000000 0.000000 0.000000
							CHANNELS 3 Xrotation Yrotation Zrotation
							JOINT Neck
							{
								OFFSET 0.000000 10.314075 0.188496
								CHANNELS 3 Xrotation Yrotation Zrotation
								JOINT Head
								{
									OFFSET 0.000000 7.643700 -2.377400
									CHANNELS 3 Xrotation Yrotation Zrotation
									JOINT HeadTop_End
									{
										OFFSET 0.000000 43.788605 -13.619600
										CHANNELS 3 Xrotation Yrotation Zrotation
										End Site
										{
											OFFSET 0 0 0
										}
									}
								}
							}
						}
						JOINT LeftShoulder_virtual
						{
							OFFSET 0.000000 0.000000 0.000000
							CHANNELS 3 Xrotation Yrotation Zrotation
							JOINT LeftShoulder
							{
								OFFSET 2.196100 4.412489 0.087492
								CHANNELS 3 Xrotation Yrotation Zrotation
								JOINT LeftShoulder_split
								{
									OFFSET 2.196100 4.412489 0.087492
									CHANNELS 3 Xrotation Yrotation Zrotation
									JOINT LeftArm
									{
										OFFSET 8.771219 -2.981674 -0.026999
										CHANNELS 3 Xrotation Yrotation Zrotation
										JOINT LeftForeArm
										{
											OFFSET 8.512804 0.000000 -0.000000
											CHANNELS 3 Xrotation Yrotation Zrotation
											JOINT LeftHand
											{
												OFFSET 18.484802 0.000000 -0.000000
												CHANNELS 3 Xrotation Yrotation Zrotation
												End Site
												{
													OFFSET 0 0 0
												}
											}
										}
									}
								}
							}
						}
						JOINT RightShoulder_virtual
						{
							OFFSET 0.000000 0.000000 0.000000
							CHANNELS 3 Xrotation Yrotation Zrotation
							JOINT RightShoulder
							{
								OFFSET -2.196100 4.412496 0.070690
								CHANNELS 3 Xrotation Yrotation Zrotation
								JOINT RightShoulder_split
								{
									OFFSET -2.196100 4.412496 0.070690
									CHANNELS 3 Xrotation Yrotation Zrotation
									JOINT RightArm
									{
										OFFSET -8.771282 -2.981682 -0.094208
										CHANNELS 3 Xrotation Yrotation Zrotation
										JOINT RightForeArm
										{
											OFFSET -8.494598 0.000000 0.000000
											CHANNELS 3 Xrotation Yrotation Zrotation
											JOINT RightHand
											{
												OFFSET -18.483803 0.000000 0.000001
												CHANNELS 3 Xrotation Yrotation Zrotation
												End Site
												{
													OFFSET 0 0 0
												}
											}
										}
									}
								}
							}
						}
					}
				}
			}
		}
	}
}
MOTION
Frames: 4
Frame Time: 0.03333333
-0.269109 28.599316 -0.034309 0.000000 0.000000 0.000000 3.000809 -58.172202 6.374288 -37.006921 4.719517 33.439582 48.223366 -12.858494 -11.597245 -12.623434 -0.319622 -14.395966 -0.327603 1.238434 0.837253 0.000000 0.000000 0.000000 3.000809 -58.172202 6.374288 -31.642477 -2.223364 -36.223413 60.431178 9.463280 -7.242492 -30.088790 -4.049703 28.253339 -0.322747 -0.997313 -0.837192 0.000000 0.000000 0.000000 3.000809 -58.172202 6.374288 11.189897 0.063101 -2.592037 8.434584 0.027696 -5.592314 0.000000 0.000000 0.000000 0.000000 0.000000 0.000000 8.457052 0.027882 -5.591869 -21.555739 25.063383 12.062609 -0.294015 25.465836 -3.208976 0.000000 0.000000 0.000000 8.457052 0.027882 -5.591869 -6.221673 -11.503796 -4.023835 0.000000 0.000000 0.000000 -23.061673 9.569069 -36.639730 0.046310 -43.170836 -0.011002 0.000000 0.000000 0.000000 8.457052 0.027882 -5.591869 -5.488238 10.658252 2.466542 0.000000 0.000000 0.000000 -41.473172 -26.756170 30.079463 -155.046250 68.136082 156.693282 0.000000 0.000000 0.000000 
-0.259702 28.601158 0.001026 0.000000 0.000000 0.000000 3.045401 -58.111065 6.411917 -37.090943 4.719517 33.354836 48.331624 -12.895808 -11.615736 -12.694643 -0.329416 -14.276441 -0.327627 1.238444 0.837254 0.000000 0.000000 0.000000 3.045401 -58.111065 6.411917 -31.537514 -2.253248 -36.323028 60.251414 9.445818 -7.225333 -30.022561 -4.070705 28.369927 -0.322756 -0.997404 -0.837209 0.000000 0.000000 0.000000 3.045401 -58.111065 6.411917 11.189984 0.059241 -2.604734 8.427927 0.021800 -5.590529 0.000000 0.000000 0.000000 0.000000 0.000000 0.000000 8.450539 0.024345 -5.590736 -21.522823 24.948439 12.125789 -0.210773 25.320597 -3.422936 0.000000 0.000000 0.000000 8.450539 0.024345 -5.590736 -6.234571 -11.512576 -4.088034 0.000000 0.000000 0.000000 -23.549898 9.594472 -36.642575 0.138481 -42.979290 0.153743 0.000000 0.000000 0.000000 8.450539 0.024345 -5.590736 -5.511175 10.663454 2.580773 0.000000 0.000000 0.000000 -40.669439 -26.535551 30.926598 -149.908145 67.121526 150.633702 0.000000 0.000000 0.000000 
-0.229606 28.607422 0.098635 0.000000 0.000000 0.000000 3.087548 -58.049546 6.451777 -37.182368 4.748815 33.143124 48.644703 -12.938544 -11.664046 -12.965157 -0.337224 -13.983203 -0.327637 1.238443 0.837241 0.000000 0.000000 0.000000 3.087548 -58.049546 6.451777 -31.311711 -2.305920 -36.597578 59.761765 9.493016 -7.175284 -29.776647 -4.084618 28.633621 -0.322754 -0.997347 -0.837178 0.000000 0.000000 0.000000 3.087548 -58.049546 6.451777 11.189563 0.040551 -2.639562 8.401982 -0.002263 -5.583281 0.000000 0.000000 0.000000 0.000000 0.000000 0.000000 8.425056 0.008615 -5.583554 -21.431262 24.624160 12.298795 0.012598 24.910345 -4.012513 0.000000 0.000000 0.000000 8.425056 0.008615 -5.583554 -6.271315 -11.537097 -4.271435 0.000000 0.000000 0.000000 -24.278466 9.356743 -36.480102 0.390038 -42.425563 0.606448 0.000000 0.000000 0.000000 8.425056 0.008615 -5.583554 -5.562375 10.685560 2.910986 0.000000 0.000000 0.000000 -40.035420 -26.442473 31.521299 -146.616568 66.782598 146.173780 0.000000 0.000000 0.000000 
-0.181807 28.619068 0.249611 0.000000 0.000000 0.000000 3.140752 -57.990219 6.502838 -37.277748 4.808288 32.820866 49.117540 -12.977919 -11.734121 -13.398663 -0.346171 -13.546501 -0.327595 1.238563 0.837246 0.000000 0.000000 0.000000 3.140752 -57.990219 6.502838 -30.984791 -2.385160 -37.014974 58.982884 9.588728 -7.093626 -29.361139 -4.085664 29.024431 -0.322760 -0.997400 -0.837182 0.000000 0.000000 0.000000 3.140752 -57.990219 6.502838 11.188944 0.010412 -2.694644 8.360033 -0.037556 -5.562296 0.000000 0.000000 0.000000 0.000000 0.000000 0.000000 8.383857 -0.015522 -5.569302 -21.297534 24.120543 12.555804 0.334049 24.270980 -4.891898 0.000000 0.000000 0.000000 8.383857 -0.015522 -5.569302 -6.329130 -11.574845 -4.560046 0.000000 0.000000 0.000000 -25.140958 8.962295 -36.205518 0.758553 -41.741229 1.278116 0.000000 0.000000 0.000000 8.383857 -0.015522 -5.569302 -5.644376 10.721019 3.438189 0.000000 0.000000 0.000000 -39.567764 -26.416501 31.881209 -150.463713 68.711908 148.189806 0.000000 0.000000 0.000000 
